{
    "asset" : {
        "generator" : "Khronos glTF Blender I/O v3.4.50",
        "version" : "2.0"
    },
    "scene" : 0,
    "scenes" : [
        {
            "name" : "Scene",
            "nodes" : [
                0,
                1,
                2,
                3
            ]
        }
    ],
    "nodes" : [
        {
            "extras" : {
                "id" : "ground"
            },
            "mesh" : 0,
            "name" : "Plane",
            "scale" : [
                12.34756088256836,
                12.34756088256836,
                12.34756088256836
            ]
        },
        {
            "extras" : {
                "id" : "stall"
            },
            "mesh" : 1,
            "name" : "Cube",
            "scale" : [
                3.4807426929473877,
                3.4807426929473877,
                3.4807426929473877
            ]
        },
        {
            "extras" : {
                "id" : "tree"
            },
            "mesh" : 2,
            "name" : "Low Poly Tree 5.003",
            "rotation" : [
                0,
                0.2605390250682831,
                0,
                0.9654633402824402
            ],
            "scale" : [
                2.8205249309539795,
                5.6088032722473145,
                2.8205249309539795
            ]
        },
        {
            "extras" : {
                "id" : "tree"
            },
            "mesh" : 3,
            "name" : "Low Poly Tree 5.001",
            "rotation" : [
                0,
                0.2605390250682831,
                0,
                0.9654633402824402
            ],
            "scale" : [
                2.8205249309539795,
                5.6088032722473145,
                2.8205249309539795
            ],
            "translation" : [
                -16.98934555053711,
                0,
                20.949310302734375
            ]
        }
    ],
    "materials" : [
        {
            "doubleSided" : true,
            "name" : "Material.001",
            "pbrMetallicRoughness" : {
                "baseColorFactor" : [
                    0.027320899069309235,
                    0.06662595272064209,
                    0.012983039021492004,
                    1
                ],
                "metallicFactor" : 0,
                "roughnessFactor" : 0.5
            }
        },
        {
            "doubleSided" : true,
            "name" : "path",
            "pbrMetallicRoughness" : {
                "baseColorFactor" : [
                    0.006056156475096941,
                    0.03309454396367073,
                    0.004571560304611921,
                    1
                ],
                "metallicFactor" : 0,
                "roughnessFactor" : 0.5
            }
        },
        {
            "doubleSided" : true,
            "name" : "Yellow",
            "pbrMetallicRoughness" : {
                "baseColorFactor" : [
                    0.8000000715255737,
                    0.7759530544281006,
                    0.1304212212562561,
                    1
                ],
                "metallicFactor" : 0,
                "roughnessFactor" : 0.5
            }
        },
        {
            "doubleSided" : true,
            "name" : "wall",
            "pbrMetallicRoughness" : {
                "baseColorFactor" : [
                    0.9550902247428894,
                    0.8167344927787781,
                    0.8167344927787781,
                    1
                ],
                "metallicFactor" : 0,
                "roughnessFactor" : 0.5
            }
        },
        {
            "doubleSided" : true,
            "name" : "Leaf.003",
            "pbrMetallicRoughness" : {
                "baseColorFactor" : [
                    0.04488550126552582,
                    0.1778816431760788,
                    0.02620753087103367,
                    1
                ],
                "metallicFactor" : 0,
                "roughnessFactor" : 0.5
            }
        },
        {
            "doubleSided" : true,
            "name" : "Trunk.001",
            "pbrMetallicRoughness" : {
                "baseColorFactor" : [
                    0.12823915481567383,
                    0.05181683227419853,
                    0.012705400586128235,
                    1
                ],
                "metallicFactor" : 0,
                "roughnessFactor" : 0.5
            }
        },
        {
            "doubleSided" : true,
            "name" : "Leaf.001",
            "pbrMetallicRoughness" : {
                "baseColorFactor" : [
                    0.04488550126552582,
                    0.1778816431760788,
                    0.02620753087103367,
                    1
                ],
                "metallicFactor" : 0,
                "roughnessFactor" : 0.5
            }
        },
        {
            "doubleSided" : true,
            "name" : "Trunk.002",
            "pbrMetallicRoughness" : {
                "baseColorFactor" : [
                    0.12823915481567383,
                    0.05181683227419853,
                    0.012705400586128235,
                    1
                ],
                "metallicFactor" : 0,
                "roughnessFactor" : 0.5
            }
        }
    ],
    "meshes" : [
        {
            "name" : "Plane",
            "primitives" : [
                {
                    "attributes" : {
                        "POSITION" : 0,
                        "TEXCOORD_0" : 1,
                        "NORMAL" : 2
                    },
                    "indices" : 3,
                    "material" : 0
                },
                {
                    "attributes" : {
                        "POSITION" : 4,
                        "TEXCOORD_0" : 5,
                        "NORMAL" : 6
                    },
                    "indices" : 7,
                    "material" : 1
                }
            ]
        },
        {
            "name" : "Cube.002",
            "primitives" : [
                {
                    "attributes" : {
                        "POSITION" : 8,
                        "TEXCOORD_0" : 9,
                        "NORMAL" : 10
                    },
                    "indices" : 11,
                    "material" : 2
                },
                {
                    "attributes" : {
                        "POSITION" : 12,
                        "TEXCOORD_0" : 13,
                        "NORMAL" : 14
                    },
                    "indices" : 15,
                    "material" : 3
                }
            ]
        },
        {
            "name" : "Cylinder.003",
            "primitives" : [
                {
                    "attributes" : {
                        "POSITION" : 16,
                        "NORMAL" : 17
                    },
                    "indices" : 18,
                    "material" : 4
                },
                {
                    "attributes" : {
                        "POSITION" : 19,
                        "NORMAL" : 20
                    },
                    "indices" : 21,
                    "material" : 5
                }
            ]
        },
        {
            "name" : "Cylinder.004",
            "primitives" : [
                {
                    "attributes" : {
                        "POSITION" : 22,
                        "NORMAL" : 23
                    },
                    "indices" : 18,
                    "material" : 6
                },
                {
                    "attributes" : {
                        "POSITION" : 24,
                        "NORMAL" : 25
                    },
                    "indices" : 21,
                    "material" : 7
                }
            ]
        }
    ],
    "accessors" : [
        {
            "bufferView" : 0,
            "componentType" : 5126,
            "count" : 4204,
            "max" : [
                1,
                0.003913100343197584,
                1
            ],
            "min" : [
                -1,
                -0.0098334439098835,
                -1
            ],
            "type" : "VEC3"
        },
        {
            "bufferView" : 1,
            "componentType" : 5126,
            "count" : 4204,
            "type" : "VEC2"
        },
        {
            "bufferView" : 2,
            "componentType" : 5126,
            "count" : 4204,
            "type" : "VEC3"
        },
        {
            "bufferView" : 3,
            "componentType" : 5123,
            "count" : 10368,
            "type" : "SCALAR"
        },
        {
            "bufferView" : 4,
            "componentType" : 5126,
            "count" : 1987,
            "max" : [
                1,
                -0.005149430129677057,
                1
            ],
            "min" : [
                -0.7647058963775635,
                -0.0098334439098835,
                -0.7647058367729187
            ],
            "type" : "VEC3"
        },
        {
            "bufferView" : 5,
            "componentType" : 5126,
            "count" : 1987,
            "type" : "VEC2"
        },
        {
            "bufferView" : 6,
            "componentType" : 5126,
            "count" : 1987,
            "type" : "VEC3"
        },
        {
            "bufferView" : 7,
            "componentType" : 5123,
            "count" : 5238,
            "type" : "SCALAR"
        },
        {
            "bufferView" : 8,
            "componentType" : 5126,
            "count" : 416,
            "max" : [
                2.469862222671509,
                2.0143883228302,
                2.916565418243408
            ],
            "min" : [
                0.4698622226715088,
                0.014388322830200195,
                -0.6444721221923828
            ],
            "type" : "VEC3"
        },
        {
            "bufferView" : 9,
            "componentType" : 5126,
            "count" : 416,
            "type" : "VEC2"
        },
        {
            "bufferView" : 10,
            "componentType" : 5126,
            "count" : 416,
            "type" : "VEC3"
        },
        {
            "bufferView" : 11,
            "componentType" : 5123,
            "count" : 678,
            "type" : "SCALAR"
        },
        {
            "bufferView" : 12,
            "componentType" : 5126,
            "count" : 36,
            "max" : [
                0.9602832794189453,
                1.6190547943115234,
                2.344390392303467
            ],
            "min" : [
                0.725077211856842,
                0.40972185134887695,
                -0.07229673862457275
            ],
            "type" : "VEC3"
        },
        {
            "bufferView" : 13,
            "componentType" : 5126,
            "count" : 36,
            "type" : "VEC2"
        },
        {
            "bufferView" : 14,
            "componentType" : 5126,
            "count" : 36,
            "type" : "VEC3"
        },
        {
            "bufferView" : 15,
            "componentType" : 5123,
            "count" : 54,
            "type" : "SCALAR"
        },
        {
            "bufferView" : 16,
            "componentType" : 5126,
            "count" : 504,
            "max" : [
                5.363044738769531,
                2.411952495574951,
                -0.9323240518569946
            ],
            "min" : [
                2.3245410919189453,
                0.271203875541687,
                -3.970827579498291
            ],
            "type" : "VEC3"
        },
        {
            "bufferView" : 17,
            "componentType" : 5126,
            "count" : 504,
            "type" : "VEC3"
        },
        {
            "bufferView" : 18,
            "componentType" : 5123,
            "count" : 774,
            "type" : "SCALAR"
        },
        {
            "bufferView" : 19,
            "componentType" : 5126,
            "count" : 72,
            "max" : [
                4.101703643798828,
                0.4982708692550659,
                -2.1963632106781006
            ],
            "min" : [
                3.587064743041992,
                -0.0337677001953125,
                -2.7110021114349365
            ],
            "type" : "VEC3"
        },
        {
            "bufferView" : 20,
            "componentType" : 5126,
            "count" : 72,
            "type" : "VEC3"
        },
        {
            "bufferView" : 21,
            "componentType" : 5123,
            "count" : 114,
            "type" : "SCALAR"
        },
        {
            "bufferView" : 22,
            "componentType" : 5126,
            "count" : 504,
            "max" : [
                5.363044738769531,
                2.411952495574951,
                -0.9323240518569946
            ],
            "min" : [
                2.3245410919189453,
                0.271203875541687,
                -3.970827579498291
            ],
            "type" : "VEC3"
        },
        {
            "bufferView" : 23,
            "componentType" : 5126,
            "count" : 504,
            "type" : "VEC3"
        },
        {
            "bufferView" : 24,
            "componentType" : 5126,
            "count" : 72,
            "max" : [
                4.101703643798828,
                0.4982708692550659,
                -2.1963632106781006
            ],
            "min" : [
                3.587064743041992,
                -0.0337677001953125,
                -2.7110021114349365
            ],
            "type" : "VEC3"
        },
        {
            "bufferView" : 25,
            "componentType" : 5126,
            "count" : 72,
            "type" : "VEC3"
        }
    ],
    "bufferViews" : [
        {
            "buffer" : 0,
            "byteLength" : 50448,
            "byteOffset" : 0,
            "target" : 34962
        },
        {
            "buffer" : 0,
            "byteLength" : 33632,
            "byteOffset" : 50448,
            "target" : 34962
        },
        {
            "buffer" : 0,
            "byteLength" : 50448,
            "byteOffset" : 84080,
            "target" : 34962
        },
        {
            "buffer" : 0,
            "byteLength" : 20736,
            "byteOffset" : 134528,
            "target" : 34963
        },
        {
            "buffer" : 0,
            "byteLength" : 23844,
            "byteOffset" : 155264,
            "target" : 34962
        },
        {
            "buffer" : 0,
            "byteLength" : 15896,
            "byteOffset" : 179108,
            "target" : 34962
        },
        {
            "buffer" : 0,
            "byteLength" : 23844,
            "byteOffset" : 195004,
            "target" : 34962
        },
        {
            "buffer" : 0,
            "byteLength" : 10476,
            "byteOffset" : 218848,
            "target" : 34963
        },
        {
            "buffer" : 0,
            "byteLength" : 4992,
            "byteOffset" : 229324,
            "target" : 34962
        },
        {
            "buffer" : 0,
            "byteLength" : 3328,
            "byteOffset" : 234316,
            "target" : 34962
        },
        {
            "buffer" : 0,
            "byteLength" : 4992,
            "byteOffset" : 237644,
            "target" : 34962
        },
        {
            "buffer" : 0,
            "byteLength" : 1356,
            "byteOffset" : 242636,
            "target" : 34963
        },
        {
            "buffer" : 0,
            "byteLength" : 432,
            "byteOffset" : 243992,
            "target" : 34962
        },
        {
            "buffer" : 0,
            "byteLength" : 288,
            "byteOffset" : 244424,
            "target" : 34962
        },
        {
            "buffer" : 0,
            "byteLength" : 432,
            "byteOffset" : 244712,
            "target" : 34962
        },
        {
            "buffer" : 0,
            "byteLength" : 108,
            "byteOffset" : 245144,
            "target" : 34963
        },
        {
            "buffer" : 0,
            "byteLength" : 6048,
            "byteOffset" : 245252,
            "target" : 34962
        },
        {
            "buffer" : 0,
            "byteLength" : 6048,
            "byteOffset" : 251300,
            "target" : 34962
        },
        {
            "buffer" : 0,
            "byteLength" : 1548,
            "byteOffset" : 257348,
            "target" : 34963
        },
        {
            "buffer" : 0,
            "byteLength" : 864,
            "byteOffset" : 258896,
            "target" : 34962
        },
        {
            "buffer" : 0,
            "byteLength" : 864,
            "byteOffset" : 259760,
            "target" : 34962
        },
        {
            "buffer" : 0,
            "byteLength" : 228,
            "byteOffset" : 260624,
            "target" : 34963
        },
        {
            "buffer" : 0,
            "byteLength" : 6048,
            "byteOffset" : 260852,
            "target" : 34962
        },
        {
            "buffer" : 0,
            "byteLength" : 6048,
            "byteOffset" : 266900,
            "target" : 34962
        },
        {
            "buffer" : 0,
            "byteLength" : 864,
            "byteOffset" : 272948,
            "target" : 34962
        },
        {
            "buffer" : 0,
            "byteLength" : 864,
            "byteOffset" : 273812,
            "target" : 34962
        }
    ],
    "buffers" : [
        {
            "byteLength" : 274676,
            "uri" : "data:application/octet-stream;base64,"
        }
    ]
}
